<svg id="Layer_1" data-name="Layer 1" xmlns="http://www.w3.org/2000/svg" viewBox="0 0 550.07 347"><defs><style>.cls-1{fill:none;stroke:red;stroke-width:0.14px;}</style></defs><title>alpha plate</title><polygon class="cls-1" points="542.91 0.07 543.47 0.09 544.02 0.16 544.56 0.27 545.1 0.42 545.62 0.61 546.13 0.84 546.61 1.12 547.08 1.43 547.51 1.77 547.92 2.15 548.3 2.56 548.64 2.99 548.95 3.46 549.22 3.94 549.46 4.45 549.65 4.97 549.8 5.5 549.91 6.05 549.98 6.6 550 7.16 550 164.91 549.98 165.47 549.91 166.02 549.8 166.56 549.65 167.1 549.46 167.62 549.22 168.13 548.95 168.61 548.64 169.07 548.3 169.51 547.92 169.92 547.51 170.3 547.08 170.64 546.61 170.95 546.13 171.22 545.62 171.45 545.1 171.65 544.56 171.8 544.02 171.91 543.47 171.97 542.91 172 7.16 172 6.6 171.97 6.05 171.91 5.5 171.8 4.97 171.65 4.45 171.45 3.94 171.22 3.46 170.95 2.99 170.64 2.56 170.3 2.15 169.92 1.77 169.51 1.43 169.07 1.12 168.61 0.84 168.13 0.61 167.62 0.42 167.1 0.27 166.56 0.16 166.02 0.09 165.47 0.07 164.91 0.07 7.16 0.09 6.6 0.16 6.05 0.27 5.5 0.42 4.97 0.61 4.45 0.84 3.94 1.12 3.46 1.43 2.99 1.77 2.56 2.15 2.15 2.56 1.77 2.99 1.43 3.46 1.12 3.94 0.84 4.45 0.61 4.97 0.42 5.5 0.27 6.05 0.16 6.6 0.09 7.16 0.07 542.91 0.07"/><polygon class="cls-1" points="282.19 120.19 282.19 121.89 279.92 121.89 279.92 133.51 277.87 133.51 277.87 124.36 272.98 124.36 272.98 121.75 263.63 121.75 263.63 124.36 258.73 124.36 258.73 133.51 256.39 133.51 256.39 141.45 258.73 141.45 258.73 159.22 263.63 159.22 263.63 162 272.98 162 272.98 159.22 277.87 159.22 277.87 146.55 279.92 146.55 279.92 158.18 282.19 158.18 282.19 159.88 321.87 159.88 321.87 158.18 324.14 158.18 324.14 146.55 326.2 146.55 326.2 159.22 331.09 159.22 331.09 162 340.44 162 340.44 159.22 345.33 159.22 345.33 141.45 347.67 141.45 347.67 133.51 345.33 133.51 345.33 124.36 340.44 124.36 340.44 121.75 331.09 121.75 331.09 124.36 326.2 124.36 326.2 133.51 324.14 133.51 324.14 121.89 321.87 121.89 321.87 120.19 282.19 120.19"/><polygon class="cls-1" points="39.19 120.19 39.19 121.89 36.92 121.89 36.92 158.18 39.19 158.18 39.19 159.88 78.88 159.88 78.88 158.18 81.14 158.18 81.14 121.89 78.88 121.89 78.88 120.19 39.19 120.19"/><polygon class="cls-1" points="93.19 120.19 93.19 121.89 90.92 121.89 90.92 158.18 93.19 158.18 93.19 159.88 132.87 159.88 132.87 158.18 135.14 158.18 135.14 121.89 132.87 121.89 132.87 120.19 93.19 120.19"/><polygon class="cls-1" points="147.19 120.19 147.19 121.89 144.92 121.89 144.92 158.18 147.19 158.18 147.19 159.88 186.87 159.88 186.87 158.18 189.14 158.18 189.14 121.89 186.87 121.89 186.87 120.19 147.19 120.19"/><polygon class="cls-1" points="201.19 120.19 201.19 121.89 198.92 121.89 198.92 158.18 201.19 158.18 201.19 159.88 240.87 159.88 240.87 158.18 243.14 158.18 243.14 121.89 240.87 121.89 240.87 120.19 201.19 120.19"/><polygon class="cls-1" points="363.19 120.19 363.19 121.89 360.92 121.89 360.92 158.18 363.19 158.18 363.19 159.88 402.88 159.88 402.88 158.18 405.14 158.18 405.14 121.89 402.88 121.89 402.88 120.19 363.19 120.19"/><polygon class="cls-1" points="417.19 120.19 417.19 121.89 414.92 121.89 414.92 158.18 417.19 158.18 417.19 159.88 456.88 159.88 456.88 158.18 459.14 158.18 459.14 121.89 456.88 121.89 456.88 120.19 417.19 120.19"/><polygon class="cls-1" points="471.19 120.19 471.19 121.89 468.92 121.89 468.92 158.18 471.19 158.18 471.19 159.88 510.88 159.88 510.88 158.18 513.14 158.18 513.14 121.89 510.88 121.89 510.88 120.19 471.19 120.19"/><polygon class="cls-1" points="12.19 66.19 12.19 67.89 9.92 67.89 9.92 104.18 12.19 104.18 12.19 105.88 51.88 105.88 51.88 104.18 54.15 104.18 54.15 67.89 51.88 67.89 51.88 66.19 12.19 66.19"/><polygon class="cls-1" points="66.19 66.19 66.19 67.89 63.92 67.89 63.92 104.18 66.19 104.18 66.19 105.88 105.88 105.88 105.88 104.18 108.14 104.18 108.14 67.89 105.88 67.89 105.88 66.19 66.19 66.19"/><polygon class="cls-1" points="120.19 66.19 120.19 67.89 117.92 67.89 117.92 104.18 120.19 104.18 120.19 105.88 159.88 105.88 159.88 104.18 162.15 104.18 162.15 67.89 159.88 67.89 159.88 66.19 120.19 66.19"/><polygon class="cls-1" points="174.19 66.19 174.19 67.89 171.92 67.89 171.92 104.18 174.19 104.18 174.19 105.88 213.88 105.88 213.88 104.18 216.15 104.18 216.15 67.89 213.88 67.89 213.88 66.19 174.19 66.19"/><polygon class="cls-1" points="228.19 66.19 228.19 67.89 225.92 67.89 225.92 104.18 228.19 104.18 228.19 105.88 267.88 105.88 267.88 104.18 270.14 104.18 270.14 67.89 267.88 67.89 267.88 66.19 228.19 66.19"/><polygon class="cls-1" points="282.19 66.19 282.19 67.89 279.92 67.89 279.92 104.18 282.19 104.18 282.19 105.88 321.87 105.88 321.87 104.18 324.14 104.18 324.14 67.89 321.87 67.89 321.87 66.19 282.19 66.19"/><polygon class="cls-1" points="336.19 66.19 336.19 67.89 333.92 67.89 333.92 104.18 336.19 104.18 336.19 105.88 375.88 105.88 375.88 104.18 378.14 104.18 378.14 67.89 375.88 67.89 375.88 66.19 336.19 66.19"/><polygon class="cls-1" points="390.19 66.19 390.19 67.89 387.92 67.89 387.92 104.18 390.19 104.18 390.19 105.88 429.88 105.88 429.88 104.18 432.14 104.18 432.14 67.89 429.88 67.89 429.88 66.19 390.19 66.19"/><polygon class="cls-1" points="444.19 66.19 444.19 67.89 441.92 67.89 441.92 104.18 444.19 104.18 444.19 105.88 483.88 105.88 483.88 104.18 486.14 104.18 486.14 67.89 483.88 67.89 483.88 66.19 444.19 66.19"/><polygon class="cls-1" points="498.19 66.19 498.19 67.89 495.92 67.89 495.92 104.18 498.19 104.18 498.19 105.88 537.88 105.88 537.88 104.18 540.14 104.18 540.14 67.89 537.88 67.89 537.88 66.19 498.19 66.19"/><polygon class="cls-1" points="12.19 12.19 12.19 13.89 9.92 13.89 9.92 50.17 12.19 50.17 12.19 51.88 51.88 51.88 51.88 50.17 54.15 50.17 54.15 13.89 51.88 13.89 51.88 12.19 12.19 12.19"/><polygon class="cls-1" points="66.19 12.19 66.19 13.89 63.92 13.89 63.92 50.17 66.19 50.17 66.19 51.88 105.88 51.88 105.88 50.17 108.14 50.17 108.14 13.89 105.88 13.89 105.88 12.19 66.19 12.19"/><polygon class="cls-1" points="120.19 12.19 120.19 13.89 117.92 13.89 117.92 50.17 120.19 50.17 120.19 51.88 159.88 51.88 159.88 50.17 162.15 50.17 162.15 13.89 159.88 13.89 159.88 12.19 120.19 12.19"/><polygon class="cls-1" points="174.19 12.19 174.19 13.89 171.92 13.89 171.92 50.17 174.19 50.17 174.19 51.88 213.88 51.88 213.88 50.17 216.15 50.17 216.15 13.89 213.88 13.89 213.88 12.19 174.19 12.19"/><polygon class="cls-1" points="228.19 12.19 228.19 13.89 225.92 13.89 225.92 50.17 228.19 50.17 228.19 51.88 267.88 51.88 267.88 50.17 270.14 50.17 270.14 13.89 267.88 13.89 267.88 12.19 228.19 12.19"/><polygon class="cls-1" points="282.19 12.19 282.19 13.89 279.92 13.89 279.92 50.17 282.19 50.17 282.19 51.88 321.87 51.88 321.87 50.17 324.14 50.17 324.14 13.89 321.87 13.89 321.87 12.19 282.19 12.19"/><polygon class="cls-1" points="336.19 12.19 336.19 13.89 333.92 13.89 333.92 50.17 336.19 50.17 336.19 51.88 375.88 51.88 375.88 50.17 378.14 50.17 378.14 13.89 375.88 13.89 375.88 12.19 336.19 12.19"/><polygon class="cls-1" points="390.19 12.19 390.19 13.89 387.92 13.89 387.92 50.17 390.19 50.17 390.19 51.88 429.88 51.88 429.88 50.17 432.14 50.17 432.14 13.89 429.88 13.89 429.88 12.19 390.19 12.19"/><polygon class="cls-1" points="444.19 12.19 444.19 13.89 441.92 13.89 441.92 50.17 444.19 50.17 444.19 51.88 483.88 51.88 483.88 50.17 486.14 50.17 486.14 13.89 483.88 13.89 483.88 12.19 444.19 12.19"/><polygon class="cls-1" points="498.19 12.19 498.19 13.89 495.92 13.89 495.92 50.17 498.19 50.17 498.19 51.88 537.88 51.88 537.88 50.17 540.14 50.17 540.14 13.89 537.88 13.89 537.88 12.19 498.19 12.19"/><circle class="cls-1" cx="59.03" cy="59.03" r="4.54"/><circle class="cls-1" cx="18.99" cy="129.26" r="4.54"/><circle class="cls-1" cx="275.03" cy="59.03" r="4.54"/><circle class="cls-1" cx="529.26" cy="129.26" r="4.54"/><circle class="cls-1" cx="491.03" cy="9.98" r="4.54"/><polygon class="cls-1" points="542.91 175 543.47 175.02 544.02 175.09 544.57 175.2 545.1 175.35 545.62 175.54 546.13 175.77 546.62 176.04 547.08 176.35 547.51 176.7 547.92 177.08 548.3 177.48 548.65 177.92 548.96 178.38 549.23 178.87 549.46 179.37 549.65 179.9 549.8 180.43 549.91 180.98 549.98 181.53 550 182.09 550 339.83 549.98 340.39 549.91 340.95 549.8 341.49 549.65 342.03 549.46 342.55 549.23 343.05 548.96 343.54 548.65 344 548.3 344.44 547.92 344.85 547.51 345.23 547.08 345.57 546.62 345.88 546.13 346.15 545.62 346.38 545.1 346.58 544.57 346.73 544.02 346.84 543.47 346.9 542.91 346.93 7.16 346.93 6.61 346.9 6.05 346.84 5.51 346.73 4.97 346.58 4.45 346.38 3.95 346.15 3.46 345.88 3 345.57 2.56 345.23 2.15 344.85 1.77 344.44 1.43 344 1.12 343.54 0.85 343.05 0.62 342.55 0.42 342.03 0.27 341.49 0.16 340.95 0.1 340.39 0.07 339.83 0.08 182.09 0.1 181.53 0.16 180.98 0.27 180.43 0.42 179.9 0.62 179.37 0.85 178.87 1.12 178.38 1.43 177.92 1.77 177.48 2.15 177.08 2.56 176.7 3 176.35 3.46 176.04 3.95 175.77 4.45 175.54 4.97 175.35 5.51 175.2 6.05 175.09 6.61 175.02 7.16 175 542.91 175"/><circle class="cls-1" cx="59.03" cy="233.96" r="4.54"/><circle class="cls-1" cx="19" cy="304.19" r="4.54"/><circle class="cls-1" cx="275.04" cy="233.96" r="4.54"/><circle class="cls-1" cx="529.26" cy="304.19" r="4.54"/><circle class="cls-1" cx="491.04" cy="184.91" r="4.54"/></svg>