<?xml version="1.0" encoding="utf-8"?>
<!-- Generator: Adobe Illustrator 22.1.0, SVG Export Plug-In . SVG Version: 6.00 Build 0)  -->
<svg version="1.1" id="Layer_1" xmlns="http://www.w3.org/2000/svg" xmlns:xlink="http://www.w3.org/1999/xlink" x="0px" y="0px"
	 viewBox="0 0 550.1 347" style="enable-background:new 0 0 550.1 347;" xml:space="preserve">
<style type="text/css">
	.st0{fill:none;stroke:#FF0000;stroke-width:0.14;}
</style>
<title>alpha plate</title>
<polygon class="st0" points="542.9,0.1 543.5,0.1 544,0.2 544.6,0.3 545.1,0.4 545.6,0.6 546.1,0.8 546.6,1.1 547.1,1.4 547.5,1.8 
	547.9,2.1 548.3,2.6 548.6,3 549,3.5 549.2,3.9 549.5,4.4 549.7,5 549.8,5.5 549.9,6 550,6.6 550,7.2 550,164.9 550,165.5 
	549.9,166 549.8,166.6 549.7,167.1 549.5,167.6 549.2,168.1 549,168.6 548.6,169.1 548.3,169.5 547.9,169.9 547.5,170.3 
	547.1,170.6 546.6,170.9 546.1,171.2 545.6,171.4 545.1,171.6 544.6,171.8 544,171.9 543.5,172 542.9,172 7.2,172 6.6,172 
	6.1,171.9 5.5,171.8 5,171.6 4.4,171.4 3.9,171.2 3.5,170.9 3,170.6 2.6,170.3 2.2,169.9 1.8,169.5 1.4,169.1 1.1,168.6 0.8,168.1 
	0.6,167.6 0.4,167.1 0.3,166.6 0.2,166 0.1,165.5 0.1,164.9 0.1,7.2 0.1,6.6 0.2,6 0.3,5.5 0.4,5 0.6,4.4 0.8,3.9 1.1,3.5 1.4,3 
	1.8,2.6 2.2,2.1 2.6,1.8 3,1.4 3.5,1.1 3.9,0.8 4.4,0.6 5,0.4 5.5,0.3 6.1,0.2 6.6,0.1 7.2,0.1 "/>
<polygon class="st0" points="282.2,120.2 282.2,121.9 279.9,121.9 279.9,133.5 277.9,133.5 277.9,124.4 273,124.4 273,121.7 
	263.6,121.7 263.6,124.4 258.7,124.4 258.7,133.5 256.4,133.5 256.4,141.4 258.7,141.4 258.7,159.2 263.6,159.2 263.6,162 273,162 
	273,159.2 277.9,159.2 277.9,146.5 279.9,146.5 279.9,158.2 282.2,158.2 282.2,159.9 321.9,159.9 321.9,158.2 324.1,158.2 
	324.1,146.5 326.2,146.5 326.2,159.2 331.1,159.2 331.1,162 340.4,162 340.4,159.2 345.3,159.2 345.3,141.4 347.7,141.4 
	347.7,133.5 345.3,133.5 345.3,124.4 340.4,124.4 340.4,121.7 331.1,121.7 331.1,124.4 326.2,124.4 326.2,133.5 324.1,133.5 
	324.1,121.9 321.9,121.9 321.9,120.2 "/>
<polygon class="st0" points="39.2,120.2 39.2,121.9 36.9,121.9 36.9,158.2 39.2,158.2 39.2,159.9 78.9,159.9 78.9,158.2 81.1,158.2 
	81.1,121.9 78.9,121.9 78.9,120.2 "/>
<polygon class="st0" points="93.2,120.2 93.2,121.9 90.9,121.9 90.9,158.2 93.2,158.2 93.2,159.9 132.9,159.9 132.9,158.2 
	135.1,158.2 135.1,121.9 132.9,121.9 132.9,120.2 "/>
<polygon class="st0" points="147.2,120.2 147.2,121.9 144.9,121.9 144.9,158.2 147.2,158.2 147.2,159.9 186.9,159.9 186.9,158.2 
	189.1,158.2 189.1,121.9 186.9,121.9 186.9,120.2 "/>
<polygon class="st0" points="201.2,120.2 201.2,121.9 198.9,121.9 198.9,158.2 201.2,158.2 201.2,159.9 240.9,159.9 240.9,158.2 
	243.1,158.2 243.1,121.9 240.9,121.9 240.9,120.2 "/>
<polygon class="st0" points="363.2,120.2 363.2,121.9 360.9,121.9 360.9,158.2 363.2,158.2 363.2,159.9 402.9,159.9 402.9,158.2 
	405.1,158.2 405.1,121.9 402.9,121.9 402.9,120.2 "/>
<polygon class="st0" points="417.2,120.2 417.2,121.9 414.9,121.9 414.9,158.2 417.2,158.2 417.2,159.9 456.9,159.9 456.9,158.2 
	459.1,158.2 459.1,121.9 456.9,121.9 456.9,120.2 "/>
<polygon class="st0" points="471.2,120.2 471.2,121.9 468.9,121.9 468.9,158.2 471.2,158.2 471.2,159.9 510.9,159.9 510.9,158.2 
	513.1,158.2 513.1,121.9 510.9,121.9 510.9,120.2 "/>
<polygon class="st0" points="12.2,66.2 12.2,67.9 9.9,67.9 9.9,104.2 12.2,104.2 12.2,105.9 51.9,105.9 51.9,104.2 54.2,104.2 
	54.2,67.9 51.9,67.9 51.9,66.2 "/>
<polygon class="st0" points="66.2,66.2 66.2,67.9 63.9,67.9 63.9,104.2 66.2,104.2 66.2,105.9 105.9,105.9 105.9,104.2 108.1,104.2 
	108.1,67.9 105.9,67.9 105.9,66.2 "/>
<polygon class="st0" points="120.2,66.2 120.2,67.9 117.9,67.9 117.9,104.2 120.2,104.2 120.2,105.9 159.9,105.9 159.9,104.2 
	162.1,104.2 162.1,67.9 159.9,67.9 159.9,66.2 "/>
<polygon class="st0" points="174.2,66.2 174.2,67.9 171.9,67.9 171.9,104.2 174.2,104.2 174.2,105.9 213.9,105.9 213.9,104.2 
	216.1,104.2 216.1,67.9 213.9,67.9 213.9,66.2 "/>
<polygon class="st0" points="228.2,66.2 228.2,67.9 225.9,67.9 225.9,104.2 228.2,104.2 228.2,105.9 267.9,105.9 267.9,104.2 
	270.1,104.2 270.1,67.9 267.9,67.9 267.9,66.2 "/>
<polygon class="st0" points="282.2,66.2 282.2,67.9 279.9,67.9 279.9,104.2 282.2,104.2 282.2,105.9 321.9,105.9 321.9,104.2 
	324.1,104.2 324.1,67.9 321.9,67.9 321.9,66.2 "/>
<polygon class="st0" points="336.2,66.2 336.2,67.9 333.9,67.9 333.9,104.2 336.2,104.2 336.2,105.9 375.9,105.9 375.9,104.2 
	378.1,104.2 378.1,67.9 375.9,67.9 375.9,66.2 "/>
<polygon class="st0" points="390.2,66.2 390.2,67.9 387.9,67.9 387.9,104.2 390.2,104.2 390.2,105.9 429.9,105.9 429.9,104.2 
	432.1,104.2 432.1,67.9 429.9,67.9 429.9,66.2 "/>
<polygon class="st0" points="444.2,66.2 444.2,67.9 441.9,67.9 441.9,104.2 444.2,104.2 444.2,105.9 483.9,105.9 483.9,104.2 
	486.1,104.2 486.1,67.9 483.9,67.9 483.9,66.2 "/>
<polygon class="st0" points="498.2,66.2 498.2,67.9 495.9,67.9 495.9,104.2 498.2,104.2 498.2,105.9 537.9,105.9 537.9,104.2 
	540.1,104.2 540.1,67.9 537.9,67.9 537.9,66.2 "/>
<polygon class="st0" points="12.2,12.2 12.2,13.9 9.9,13.9 9.9,50.2 12.2,50.2 12.2,51.9 51.9,51.9 51.9,50.2 54.2,50.2 54.2,13.9 
	51.9,13.9 51.9,12.2 "/>
<polygon class="st0" points="66.2,12.2 66.2,13.9 63.9,13.9 63.9,50.2 66.2,50.2 66.2,51.9 105.9,51.9 105.9,50.2 108.1,50.2 
	108.1,13.9 105.9,13.9 105.9,12.2 "/>
<polygon class="st0" points="120.2,12.2 120.2,13.9 117.9,13.9 117.9,50.2 120.2,50.2 120.2,51.9 159.9,51.9 159.9,50.2 162.1,50.2 
	162.1,13.9 159.9,13.9 159.9,12.2 "/>
<polygon class="st0" points="174.2,12.2 174.2,13.9 171.9,13.9 171.9,50.2 174.2,50.2 174.2,51.9 213.9,51.9 213.9,50.2 216.1,50.2 
	216.1,13.9 213.9,13.9 213.9,12.2 "/>
<polygon class="st0" points="228.2,12.2 228.2,13.9 225.9,13.9 225.9,50.2 228.2,50.2 228.2,51.9 267.9,51.9 267.9,50.2 270.1,50.2 
	270.1,13.9 267.9,13.9 267.9,12.2 "/>
<polygon class="st0" points="282.2,12.2 282.2,13.9 279.9,13.9 279.9,50.2 282.2,50.2 282.2,51.9 321.9,51.9 321.9,50.2 324.1,50.2 
	324.1,13.9 321.9,13.9 321.9,12.2 "/>
<polygon class="st0" points="336.2,12.2 336.2,13.9 333.9,13.9 333.9,50.2 336.2,50.2 336.2,51.9 375.9,51.9 375.9,50.2 378.1,50.2 
	378.1,13.9 375.9,13.9 375.9,12.2 "/>
<polygon class="st0" points="390.2,12.2 390.2,13.9 387.9,13.9 387.9,50.2 390.2,50.2 390.2,51.9 429.9,51.9 429.9,50.2 432.1,50.2 
	432.1,13.9 429.9,13.9 429.9,12.2 "/>
<polygon class="st0" points="444.2,12.2 444.2,13.9 441.9,13.9 441.9,50.2 444.2,50.2 444.2,51.9 483.9,51.9 483.9,50.2 486.1,50.2 
	486.1,13.9 483.9,13.9 483.9,12.2 "/>
<polygon class="st0" points="498.2,12.2 498.2,13.9 495.9,13.9 495.9,50.2 498.2,50.2 498.2,51.9 537.9,51.9 537.9,50.2 540.1,50.2 
	540.1,13.9 537.9,13.9 537.9,12.2 "/>
<circle class="st0" cx="59" cy="59" r="4.5"/>
<circle class="st0" cx="19" cy="129.3" r="4.5"/>
<circle class="st0" cx="275" cy="59" r="4.5"/>
<circle class="st0" cx="529.3" cy="129.3" r="4.5"/>
<circle class="st0" cx="491" cy="59" r="4.5"/>
<polygon class="st0" points="542.9,175 543.5,175 544,175.1 544.6,175.2 545.1,175.3 545.6,175.5 546.1,175.8 546.6,176 
	547.1,176.3 547.5,176.7 547.9,177.1 548.3,177.5 548.7,177.9 549,178.4 549.2,178.9 549.5,179.4 549.7,179.9 549.8,180.4 
	549.9,181 550,181.5 550,182.1 550,339.8 550,340.4 549.9,341 549.8,341.5 549.7,342 549.5,342.5 549.2,343 549,343.5 548.7,344 
	548.3,344.4 547.9,344.9 547.5,345.2 547.1,345.6 546.6,345.9 546.1,346.1 545.6,346.4 545.1,346.6 544.6,346.7 544,346.8 
	543.5,346.9 542.9,346.9 7.2,346.9 6.6,346.9 6.1,346.8 5.5,346.7 5,346.6 4.4,346.4 4,346.1 3.5,345.9 3,345.6 2.6,345.2 
	2.2,344.9 1.8,344.4 1.4,344 1.1,343.5 0.9,343 0.6,342.5 0.4,342 0.3,341.5 0.2,341 0.1,340.4 0.1,339.8 0.1,182.1 0.1,181.5 
	0.2,181 0.3,180.4 0.4,179.9 0.6,179.4 0.9,178.9 1.1,178.4 1.4,177.9 1.8,177.5 2.2,177.1 2.6,176.7 3,176.3 3.5,176 4,175.8 
	4.4,175.5 5,175.3 5.5,175.2 6.1,175.1 6.6,175 7.2,175 "/>
<circle class="st0" cx="59" cy="234" r="4.5"/>
<ellipse transform="matrix(0.9999 -1.514631e-02 1.514631e-02 0.9999 -4.6052 0.3227)" class="st0" cx="19" cy="304.2" rx="4.5" ry="4.5"/>
<circle class="st0" cx="275" cy="234" r="4.5"/>
<circle class="st0" cx="529.3" cy="304.2" r="4.5"/>
<circle class="st0" cx="491" cy="234" r="4.5"/>
</svg>
