M48
; DRILL file {KiCad (5.1.0)-1} date 7/29/2019 1:52:30 PM
; FORMAT={-:-/ absolute / inch / decimal}
; #@! TF.CreationDate,2019-07-29T13:52:30-07:00
; #@! TF.GenerationSoftware,Kicad,Pcbnew,(5.1.0)-1
; #@! TF.FileFunction,NonPlated,1,2,NPTH
FMAT,2
INCH
T1C0.0472
T2C0.0669
T3C0.0689
T4C0.1200
T5C0.1570
T6C0.2362
%
G90
G05
T1
X3.9195Y-5.9779
X9.5445Y-4.4779
X7.6695Y-5.9779
X8.0445Y-4.4779
X9.1695Y-5.9779
X4.6695Y-5.9779
X4.2945Y-4.4779
X8.7945Y-5.2279
X2.7945Y-4.4779
X5.0445Y-5.2279
X7.2945Y-5.2279
X3.5445Y-4.4779
X5.4195Y-5.9779
X7.2945Y-4.4779
X3.1695Y-5.9779
X2.7945Y-5.2279
X6.5445Y-4.4779
X5.7945Y-5.2279
X4.2945Y-5.2279
X6.5445Y-5.2279
X8.4195Y-5.9779
X6.5445Y-5.9779
X8.7945Y-4.4779
X5.0445Y-4.4779
X5.7945Y-4.4779
X8.0445Y-5.2279
X3.5445Y-5.2279
X9.5445Y-5.2279
T2
X8.0335Y-4.3125
X8.4665Y-4.3125
X9.1585Y-5.8125
X9.5915Y-5.8125
X4.6585Y-5.8125
X5.0915Y-5.8125
X4.2835Y-4.3125
X4.7165Y-4.3125
X8.7835Y-5.0625
X9.2165Y-5.0625
X2.7835Y-4.3125
X3.2165Y-4.3125
X5.0335Y-5.0625
X5.4665Y-5.0625
X7.2835Y-5.0625
X7.7165Y-5.0625
X3.5335Y-4.3125
X3.9665Y-4.3125
X5.4085Y-5.8125
X5.8415Y-5.8125
X7.2835Y-4.3125
X7.7165Y-4.3125
X3.1585Y-5.8125
X3.5915Y-5.8125
X2.7835Y-5.0625
X3.2165Y-5.0625
X3.9085Y-5.8125
X4.3415Y-5.8125
X6.5335Y-4.3125
X6.9665Y-4.3125
X5.7835Y-5.0625
X6.2165Y-5.0625
X4.2835Y-5.0625
X4.7165Y-5.0625
X6.5335Y-5.0625
X6.9665Y-5.0625
X8.4085Y-5.8125
X8.8415Y-5.8125
X6.5335Y-5.8125
X6.9665Y-5.8125
X9.5335Y-4.3125
X9.9665Y-4.3125
X8.7835Y-4.3125
X9.2165Y-4.3125
X5.0335Y-4.3125
X5.4665Y-4.3125
X5.7835Y-4.3125
X6.2165Y-4.3125
X8.0335Y-5.0625
X8.4665Y-5.0625
X3.5335Y-5.0625
X3.9665Y-5.0625
X9.5335Y-5.0625
X9.9665Y-5.0625
X7.6585Y-5.8125
X8.0915Y-5.8125
T3
X9.55Y-4.3125
X9.95Y-4.3125
X8.8Y-4.3125
X9.2Y-4.3125
X5.05Y-4.3125
X5.45Y-4.3125
X5.8Y-4.3125
X6.2Y-4.3125
X8.05Y-5.0625
X8.45Y-5.0625
X3.55Y-5.0625
X3.95Y-5.0625
X9.55Y-5.0625
X9.95Y-5.0625
X7.675Y-5.8125
X8.075Y-5.8125
X8.05Y-4.3125
X8.45Y-4.3125
X9.175Y-5.8125
X9.575Y-5.8125
X4.675Y-5.8125
X5.075Y-5.8125
X4.3Y-4.3125
X4.7Y-4.3125
X8.8Y-5.0625
X9.2Y-5.0625
X2.8Y-4.3125
X3.2Y-4.3125
X5.05Y-5.0625
X5.45Y-5.0625
X7.3Y-5.0625
X7.7Y-5.0625
X3.55Y-4.3125
X3.95Y-4.3125
X5.425Y-5.8125
X5.825Y-5.8125
X7.3Y-4.3125
X7.7Y-4.3125
X3.175Y-5.8125
X3.575Y-5.8125
X2.8Y-5.0625
X3.2Y-5.0625
X3.925Y-5.8125
X4.325Y-5.8125
X6.55Y-4.3125
X6.95Y-4.3125
X5.8Y-5.0625
X6.2Y-5.0625
X4.3Y-5.0625
X4.7Y-5.0625
X6.55Y-5.0625
X6.95Y-5.0625
X8.425Y-5.8125
X8.825Y-5.8125
X6.55Y-5.8125
X6.95Y-5.8125
T4
X6.28Y-6.0875
X7.22Y-6.0875
T5
X4.875Y-5.8125
X4.5Y-4.3125
X9.0Y-5.0625
X3.0Y-4.3125
X5.25Y-5.0625
X7.5Y-5.0625
X3.75Y-4.3125
X5.625Y-5.8125
X7.5Y-4.3125
X3.375Y-5.8125
X3.0Y-5.0625
X4.125Y-5.8125
X6.75Y-4.3125
X6.0Y-5.0625
X4.5Y-5.0625
X6.75Y-5.0625
X8.625Y-5.8125
X6.28Y-5.4875
X6.75Y-5.8125
X7.22Y-5.4875
X9.75Y-4.3125
X9.0Y-4.3125
X5.25Y-4.3125
X6.0Y-4.3125
X8.25Y-5.0625
X3.75Y-5.0625
X9.75Y-5.0625
X7.875Y-5.8125
X8.25Y-4.3125
X9.375Y-5.8125
T6
X9.375Y-4.6875
X3.375Y-4.6875
X6.375Y-4.6992
T0
M30
