M48
; DRILL file {KiCad (5.1.6)-1} date 11/12/20 16:25:38
; FORMAT={-:-/ absolute / inch / decimal}
; #@! TF.CreationDate,2020-11-12T16:25:38-05:00
; #@! TF.GenerationSoftware,Kicad,Pcbnew,(5.1.6)-1
; #@! TF.FileFunction,Plated,1,2,PTH
FMAT,2
INCH
T1C0.0300
T2C0.0394
T3C0.0433
T4C0.0472
T5C0.0579
%
G90
G05
T1
X4.554Y-5.4403
X4.854Y-5.4403
X7.125Y-4.9498
X7.125Y-5.2498
X6.3775Y-4.9473
X6.3775Y-5.2473
X7.1145Y-5.6533
X7.1145Y-5.9533
X9.5665Y-5.3523
X9.8665Y-5.3523
X7.8285Y-4.9498
X7.8285Y-5.2498
X5.579Y-4.9498
X5.579Y-5.2498
X7.125Y-4.2463
X7.125Y-4.5463
X9.0015Y-5.7243
X9.0015Y-6.0243
X5.9995Y-5.7233
X5.9995Y-6.0233
X7.875Y-4.2463
X7.875Y-4.5463
X4.05Y-4.1098
X4.05Y-4.4098
X4.9215Y-4.1998
X4.9215Y-4.4998
X8.2505Y-5.7243
X8.2505Y-6.0243
X9.185Y-6.084
X9.485Y-6.084
X5.6255Y-4.2483
X5.6255Y-4.5483
X3.7505Y-5.7233
X3.7505Y-6.0233
X5.2495Y-5.7243
X5.2495Y-6.0243
X3.3745Y-4.0805
X3.3745Y-4.3805
X4.0781Y-4.9473
X4.0781Y-5.2473
X6.3775Y-4.1303
X6.3775Y-4.4303
X3.3785Y-4.9463
X3.3785Y-5.2463
X9.3745Y-4.1303
X9.3745Y-4.4303
X8.625Y-4.9473
X8.625Y-5.2473
X4.4895Y-5.7233
X4.4895Y-6.0233
X8.625Y-4.2483
X8.625Y-4.5483
X9.3785Y-4.9463
X9.3785Y-5.2463
X9.7145Y-4.6875
X10.0145Y-4.6875
T2
X3.7734Y-4.6816
X3.8734Y-4.6816
X3.9734Y-4.6816
T3
X4.2Y-3.9969
X4.2Y-4.0969
X4.2Y-4.1969
X4.2Y-4.2969
X4.2Y-4.3969
X4.2Y-4.4969
X4.2Y-4.5969
X4.2Y-4.6969
X4.2Y-4.7969
X4.2Y-4.8969
X4.2Y-4.9969
X4.2Y-5.0969
X4.8Y-3.9969
X4.8Y-4.0969
X4.8Y-4.1969
X4.8Y-4.2969
X4.8Y-4.3969
X4.8Y-4.4969
X4.8Y-4.5969
X4.8Y-4.6969
X4.8Y-4.7969
X4.8Y-4.8969
X4.8Y-4.9969
X4.8Y-5.0969
T4
X3.75Y-4.0802
X3.9469Y-4.1629
X3.75Y-4.8302
X3.9469Y-4.9129
X9.375Y-5.5802
X9.5719Y-5.6629
X4.5Y-4.0802
X4.6969Y-4.1629
X9.0Y-4.8302
X9.1969Y-4.9129
X3.0Y-4.0802
X3.1969Y-4.1629
X6.75Y-4.0802
X6.9469Y-4.1629
X6.75Y-4.8302
X6.9469Y-4.9129
X5.25Y-4.0802
X5.4469Y-4.1629
X3.375Y-5.5802
X3.5719Y-5.6629
X9.0Y-4.0802
X9.1969Y-4.1629
X6.0Y-4.0802
X6.1969Y-4.1629
X7.5Y-4.8302
X7.6969Y-4.9129
X4.5Y-4.8302
X4.6969Y-4.9129
X4.875Y-5.5802
X5.0719Y-5.6629
X6.75Y-5.5802
X6.9469Y-5.6629
X8.25Y-4.8302
X8.4469Y-4.9129
X9.75Y-4.0802
X9.9469Y-4.1629
X7.875Y-5.5802
X8.0719Y-5.6629
X8.25Y-4.0802
X8.4469Y-4.1629
X7.5Y-4.0802
X7.6969Y-4.1629
X5.625Y-5.5802
X5.8219Y-5.6629
X5.25Y-4.8302
X5.4469Y-4.9129
X4.125Y-5.5802
X4.3219Y-5.6629
X6.0Y-4.8302
X6.1969Y-4.9129
X9.75Y-4.8302
X9.9469Y-4.9129
X3.0Y-4.8302
X3.1969Y-4.9129
X8.625Y-5.5802
X8.8219Y-5.6629
T5
X3.6Y-4.2125
X3.6516Y-4.155
X3.8484Y-4.1353
X3.85Y-4.1125
X3.6Y-4.9625
X3.6516Y-4.905
X3.8484Y-4.8853
X3.85Y-4.8625
X9.225Y-5.7125
X9.2766Y-5.655
X9.4734Y-5.6353
X9.475Y-5.6125
X4.35Y-4.2125
X4.4016Y-4.155
X4.5984Y-4.1353
X4.6Y-4.1125
X8.85Y-4.9625
X8.9016Y-4.905
X9.0984Y-4.8853
X9.1Y-4.8625
X2.85Y-4.2125
X2.9016Y-4.155
X3.0984Y-4.1353
X3.1Y-4.1125
X6.6Y-4.2125
X6.6516Y-4.155
X6.8484Y-4.1353
X6.85Y-4.1125
X6.6Y-4.9625
X6.6516Y-4.905
X6.8484Y-4.8853
X6.85Y-4.8625
X5.1Y-4.2125
X5.1516Y-4.155
X5.3484Y-4.1353
X5.35Y-4.1125
X3.225Y-5.7125
X3.2766Y-5.655
X3.4734Y-5.6353
X3.475Y-5.6125
X8.85Y-4.2125
X8.9016Y-4.155
X9.0984Y-4.1353
X9.1Y-4.1125
X5.85Y-4.2125
X5.9016Y-4.155
X6.0984Y-4.1353
X6.1Y-4.1125
X7.35Y-4.9625
X7.4016Y-4.905
X7.5984Y-4.8853
X7.6Y-4.8625
X4.35Y-4.9625
X4.4016Y-4.905
X4.5984Y-4.8853
X4.6Y-4.8625
X4.725Y-5.7125
X4.7766Y-5.655
X4.9734Y-5.6353
X4.975Y-5.6125
X6.6Y-5.7125
X6.6516Y-5.655
X6.8484Y-5.6353
X6.85Y-5.6125
X8.1Y-4.9625
X8.1516Y-4.905
X8.3484Y-4.8853
X8.35Y-4.8625
X9.6Y-4.2125
X9.6516Y-4.155
X9.8484Y-4.1353
X9.85Y-4.1125
X7.725Y-5.7125
X7.7766Y-5.655
X7.9734Y-5.6353
X7.975Y-5.6125
X8.1Y-4.2125
X8.1516Y-4.155
X8.3484Y-4.1353
X8.35Y-4.1125
X7.35Y-4.2125
X7.4016Y-4.155
X7.5984Y-4.1353
X7.6Y-4.1125
X5.475Y-5.7125
X5.5266Y-5.655
X5.7234Y-5.6353
X5.725Y-5.6125
X5.1Y-4.9625
X5.1516Y-4.905
X5.3484Y-4.8853
X5.35Y-4.8625
X3.975Y-5.7125
X4.0266Y-5.655
X4.2234Y-5.6353
X4.225Y-5.6125
X5.85Y-4.9625
X5.9016Y-4.905
X6.0984Y-4.8853
X6.1Y-4.8625
X9.6Y-4.9625
X9.6516Y-4.905
X9.8484Y-4.8853
X9.85Y-4.8625
X2.85Y-4.9625
X2.9016Y-4.905
X3.0984Y-4.8853
X3.1Y-4.8625
X8.475Y-5.7125
X8.5266Y-5.655
X8.7234Y-5.6353
X8.725Y-5.6125
T0
M30
