M48
; DRILL file {KiCad (6.0.0-rc1-dev-1668-g04a478f85)} date Saturday, April 27, 2019 at 12:24:33 AM
; FORMAT={-:-/ absolute / inch / decimal}
; #@! TF.CreationDate,2019-04-27T00:24:33-07:00
; #@! TF.GenerationSoftware,Kicad,Pcbnew,(6.0.0-rc1-dev-1668-g04a478f85)
; #@! TF.FileFunction,NonPlated,1,2,NPTH
FMAT,2
INCH
T1C0.0689
T2C0.1200
T3C0.1570
T4C0.2362
%
G90
G05
T1
X8.425Y-5.8125
X8.825Y-5.8125
X7.675Y-5.8125
X8.075Y-5.8125
X5.425Y-5.8125
X5.825Y-5.8125
X4.675Y-5.8125
X5.075Y-5.8125
X3.925Y-5.8125
X4.325Y-5.8125
X3.175Y-5.8125
X3.575Y-5.8125
X9.55Y-5.0625
X9.95Y-5.0625
X8.8Y-5.0625
X9.2Y-5.0625
X8.05Y-5.0625
X8.45Y-5.0625
X7.3Y-5.0625
X7.7Y-5.0625
X6.55Y-5.0625
X6.95Y-5.0625
X5.8Y-5.0625
X6.2Y-5.0625
X5.05Y-5.0625
X5.45Y-5.0625
X4.3Y-5.0625
X4.7Y-5.0625
X3.55Y-5.0625
X3.95Y-5.0625
X2.8Y-5.0625
X3.2Y-5.0625
X9.55Y-4.3125
X9.95Y-4.3125
X8.8Y-4.3125
X9.2Y-4.3125
X8.05Y-4.3125
X8.45Y-4.3125
X7.3Y-4.3125
X7.7Y-4.3125
X6.55Y-4.3125
X6.95Y-4.3125
X5.8Y-4.3125
X6.2Y-4.3125
X5.05Y-4.3125
X5.45Y-4.3125
X6.55Y-5.8125
X6.95Y-5.8125
X2.8Y-4.3125
X3.2Y-4.3125
X4.3Y-4.3125
X4.7Y-4.3125
X3.55Y-4.3125
X3.95Y-4.3125
X9.175Y-5.8125
X9.575Y-5.8125
T2
X6.28Y-6.0875
X7.22Y-6.0875
T3
X8.625Y-5.8125
X7.875Y-5.8125
X5.625Y-5.8125
X4.875Y-5.8125
X4.125Y-5.8125
X3.375Y-5.8125
X9.75Y-5.0625
X9.0Y-5.0625
X8.25Y-5.0625
X7.5Y-5.0625
X6.75Y-5.0625
X6.0Y-5.0625
X5.25Y-5.0625
X4.5Y-5.0625
X3.75Y-5.0625
X3.0Y-5.0625
X9.75Y-4.3125
X9.0Y-4.3125
X8.25Y-4.3125
X7.5Y-4.3125
X6.75Y-4.3125
X6.0Y-4.3125
X5.25Y-4.3125
X6.28Y-5.4875
X6.75Y-5.8125
X7.22Y-5.4875
X3.0Y-4.3125
X4.5Y-4.3125
X3.75Y-4.3125
X9.375Y-5.8125
T4
X3.375Y-4.6875
X6.375Y-4.6992
X9.375Y-4.6875
T0
M30
